<svg xmlns="http://www.w3.org/2000/svg" viewBox="0 0 3386.7 2974.21" shape-rendering="geometricPrecision" text-rendering="geometricPrecision" image-rendering="optimizeQuality" fill-rule="evenodd" clip-rule="evenodd"><path d="M1871.27 213.03c207.46-342.31 919.71-272.12 919.71 210.87v150.38c0 67.66-2.36 69.47 22.07 104.84 18.6 26.93 22.8 30.16 29.1 63.08 8.21 43.11 8.82 87.22 9.39 132.2.99 70.24-25.67 90.53-61.42 147.43l-151.94 242.23c-47.1 75.47-54.63 121.72-35.75 217.28 41.78 212.54 614.35 332.06 784.28 407.67v402.47l-400.6.02v-138.68l-110.46-49.14c-51.31-22.82-121.42-45.41-202.55-71.48-191.74-61.65-464.47-149.37-474.91-202.49-5.23-26.6-7.43-42.82-6.12-50.79.86-5.27 6.52-15.71 17.17-32.8l-.21-.12 151.41-241.39 17.13-25.4c44.41-64.75 74.24-108.3 72.63-223.01-.31-27.63-.69-54.88-1.83-74.79-1.65-29.47-4.7-59.16-10.46-89.39v-.74c-12.07-63.08-20.78-78.5-48.3-118.04l.04-15h.74V807.86c0-295.51-180.96-483.83-412.69-565.61l.08-.23c-34.65-12.19-70.31-21.85-106.49-29zM0 2974.2l.07-355.24C170 2543.37 799.28 2376.56 841.15 2164c18.79-95.56 11.28-141.8-35.81-217.28L653.4 1704.49c-35.67-56.91-62.41-77.22-61.48-147.43.57-39.48 1.11-78.42 6.83-116.47 7.23-48.53 13.25-50.02 38.6-89.13 17.1-26.23 15.16-34.06 15.16-94.53v-150.38c0-304.22 282.64-444.7 543.69-421.5 224.01 19.91 432.18 160.41 432.18 421.48v150.38c0 67.66-2.36 69.48 22.06 104.85 18.6 26.93 22.8 30.16 29.11 63.08 8.2 43.11 8.81 87.21 9.38 132.2.99 70.23-25.67 90.52-61.42 147.43l-151.94 242.23c-47.09 75.46-54.62 121.71-35.75 217.28 41.78 212.53 614.36 332.06 784.29 407.67v402.46L0 2974.2zM1343.04 523.19c257.77-254.74 861.31-159.93 861.31 284.67v150.38c0 67.66-2.37 69.47 22.06 104.84 18.6 26.94 22.8 30.16 29.1 63.09 8.21 43.11 8.82 87.21 9.39 132.2.99 70.23-25.67 90.52-61.42 147.42l-151.94 242.24c-47.1 75.46-54.63 121.71-35.75 217.28 41.78 212.53 614.35 332.06 784.29 407.67v402.46l-389.94.02v-224.01l-110.45-49.12c-51.34-22.82-121.42-45.41-202.56-71.48-191.74-61.65-464.47-149.36-474.91-202.49-5.25-26.64-7.43-42.84-6.14-50.79.87-5.25 6.52-15.71 17.19-32.8l-.21-.12 151.41-241.39 17.13-25.4c44.42-64.73 74.24-108.3 72.64-223.01-.36-27.72-.74-55.22-1.84-74.79-1.64-29.47-4.72-59.16-10.46-89.39v-.74c-12.06-63.08-20.77-78.5-48.3-118.04l.04-15h.74v-150.38c0-176.43-67.41-316.56-173.05-419.61-81.71-79.7-186.11-134.26-298.31-163.71z"/></svg>