<?xml version="1.0" encoding="UTF-8"?>
<!-- Generator: Adobe Illustrator 15.0.2, SVG Export Plug-In . SVG Version: 6.00 Build 0)  -->
<!DOCTYPE svg PUBLIC "-//W3C//DTD SVG 1.1//EN" "http://www.w3.org/Graphics/SVG/1.1/DTD/svg11.dtd">
<svg xmlns="http://www.w3.org/2000/svg" xmlns:xlink="http://www.w3.org/1999/xlink" version="1.1" id="Layer_1" x="0px" y="0px" width="512px" height="422.403px" viewBox="0 0 512 422.403" enable-background="new 0 0 512 422.403" xml:space="preserve">
<g transform="matrix(.57079,0,0,-.57079,-42.80937,432.2052)">
	<path d="M972.003,670.607c-6-12.527-17.169-28.372-33.506-47.501c-16.337-19.162-36.485-35.98-60.487-50.521   c0.657-5.256,1.162-10.228,1.49-14.815c2.583-71.163-14.63-144.954-38.5-206.415C794.704,237.03,723.794,145.029,622.487,82.551   C516.855,22.546,393.846,9.8,280.504,20.685C205.247,29.226,131.085,53.555,75,99.391   c102.577-12.132,198.322,22.402,274.007,78.224c-84.094-2.101-145.151,58.123-174.014,127.708   c13.008-3.374,26.608-2.979,39.003-1.993c15.263,1.446,29.761,2.825,43.996,5.935c-53.611,17.147-100.519,48.617-125.013,96.039   c-14.354,30.067-20.848,58.658-20.98,91.092c25.108-13.097,55.33-25.876,83-24.746c-41.785,35.027-75.291,79.801-81.511,131.178   c-3.942,42.813,6.898,81.914,22.512,118.289c62.48-67.975,132.601-123.962,213.477-158.399   c55.329-22.425,110.483-34.437,167.519-34.644c-6.59,50.424-1.478,99.182,22.491,140.562   c28.206,44.511,69.377,70.296,115.497,83.173c66.049,16.786,130.456-6.931,170.992-52.459   c43.754,4.654,85.67,23.891,119.001,43.523c-14.147-42.473-41.741-84.717-81.991-104.941   C901.312,644.962,937.862,656.196,972.003,670.607z" fill="#387EFF"/>
</g>
</svg>
